<?xml version="1.0" encoding="utf-8"?>

<svg version="1.1" id="Calque_1" xmlns="http://www.w3.org/2000/svg" xmlns:xlink="http://www.w3.org/1999/xlink" x="0px" y="0px" viewBox="0 0 1180 327" style="enable-background:new 0 0 1180 327;" xml:space="preserve">

<g>
&#x9;<path fill="#ffffff" d="M80.41,238.65c-27.48,0-49.51-22.61-49.51-49.51V93.83c0-26.9,22.32-49.23,49.51-49.23h48.66&#xA;&#x9;&#x9;c19.46,0,36.63,11.45,44.65,28.33l-21.18,20.89c0-12.88-10.59-23.47-23.47-23.47H80.41c-13.17,0-23.76,10.59-23.76,23.47v95.31&#xA;&#x9;&#x9;c0,13.17,10.59,23.75,23.76,23.75h48.66c12.88,0,23.47-10.59,23.47-23.75V154.5h-41.79l25.76-25.76h41.79v60.39&#xA;&#x9;&#x9;c0,27.19-22.04,49.51-49.23,49.51H80.41z"></path>
&#x9;<path fill="#ffffff" d="M196.89,166.81c0-42.07,34.06-76.13,75.85-76.13c43.5,0,76.13,35.49,76.13,76.13c0,4.58-0.57,8.59-1.43,13.17&#xA;&#x9;&#x9;H225.23c5.44,20.04,23.76,36.06,47.51,36.06l-21.18,21.47C217.5,231.49,196.89,196.86,196.89,166.81z M272.74,117.3&#xA;&#x9;&#x9;c-22.04,0-41.79,14.88-47.51,36.06l95.31,0.29C314.81,133.61,296.49,117.3,272.74,117.3z"></path>
&#x9;<path fill="#ffffff" d="M367.47,90.11h25.76v18.03c12.88-11.16,29.48-18.03,47.8-18.03v25.76c-26.33,0-47.8,21.47-47.8,48.08v48.08&#xA;&#x9;&#x9;l-25.76,25.47V90.11z"></path>
&#x9;<path fill="#ffffff" d="M459.63,237.5V115.87l25.47-25.76v147.4H459.63z"></path>
&#x9;<path fill="#ffffff" d="M747.27,237.5v-73.56c-0.29-28.91-23.75-48.08-48.37-48.08c-11.73,0-23.75,4.29-33.49,14.02&#xA;&#x9;&#x9;c-9.16,9.16-14.31,21.18-14.31,34.06v73.56h-25.47v-73.56c0-12.88-5.15-24.9-14.31-34.06c-9.73-9.73-21.75-14.02-33.49-14.02&#xA;&#x9;&#x9;c-24.61,0-48.37,19.18-48.37,48.08v48.08l-25.76,25.47l0.29-147.4h25.47v18.03c12.88-11.16,29.77-18.03,48.08-18.03&#xA;&#x9;&#x9;c33.2,0,51.52,21.75,52.09,21.75c3.15,3.15,6.01,6.58,8.87,10.59c2.58-4.01,5.44-7.44,8.59-10.59c0.57,0,18.89-21.75,52.09-21.75&#xA;&#x9;&#x9;c40.64,0,73.27,33.2,73.56,71.84l0.29,75.56H747.27z"></path>
&#x9;<path fill="#ffffff" d="M913.28,237.5v-17.75c-12.88,11.16-29.48,17.75-48.08,17.75c-39.21,0-73.56-31.48-73.56-73.56&#xA;&#x9;&#x9;c0-40.64,32.91-73.84,73.56-73.84c18.6,0,35.2,6.87,48.08,18.03l25.76-18.03v147.4H913.28z M913.28,163.95&#xA;&#x9;&#x9;c0-12.88-5.15-24.9-14.02-34.06c-8.59-8.59-20.61-14.02-34.06-14.02c-26.33,0-47.8,21.47-47.8,48.08c0,25.76,20.61,47.8,47.8,47.8&#xA;&#x9;&#x9;C891.81,211.75,913.28,190.28,913.28,163.95z"></path>
&#x9;<path fill="#ffffff" d="M957.64,47.18h25.76v164.57l-25.76,25.76V47.18z"></path>
&#x9;<path fill="#ffffff" d="M1002,90.11h25.76v18.03c12.88-11.16,29.48-17.75,48.08-17.75c33.2,0,51.52,21.47,52.09,21.47&#xA;&#x9;&#x9;c14.88,14.88,21.47,33.2,21.47,51.23c0,38.07-29.48,74.42-73.56,74.42c-18.6,0-35.2-6.58-48.08-17.75v62.97L1002,308.48V90.11z&#xA;&#x9;&#x9; M1123.64,163.95c0-13.17-5.44-25.19-14.02-33.77c-9.73-9.73-21.75-14.02-33.49-14.02c-24.61,0-48.37,18.89-48.37,47.8&#xA;&#x9;&#x9;c0,13.17,5.44,25.19,14.02,34.06v-0.29c9.73,9.73,21.75,14.02,33.77,14.02C1100.17,211.75,1123.64,192.86,1123.64,163.95z"></path>
</g>
<circle fill="#ffffff" cx="473.39" cy="59.55" r="19.45"></circle>
</svg>