<svg xmlns="http://www.w3.org/2000/svg" viewBox="20 35 175 215">
  <path d="M80.41,238.65c-27.48,0-49.51-22.61-49.51-49.51V93.83c0-26.9,22.32-49.23,49.51-49.23h48.66&#xA;&#x9;&#x9;c19.46,0,36.63,11.45,44.65,28.33l-21.18,20.89c0-12.88-10.59-23.47-23.47-23.47H80.41c-13.17,0-23.76,10.59-23.76,23.47v95.31&#xA;&#x9;&#x9;c0,13.17,10.59,23.75,23.76,23.75h48.66c12.88,0,23.47-10.59,23.47-23.75V154.5h-41.79l25.76-25.76h41.79v60.39&#xA;&#x9;&#x9;c0,27.19-22.04,49.51-49.23,49.51H80.41z" fill="#ffffff"></path>
</svg>